<mxfile host="app.diagrams.net" modified="2022-12-14T07:55:13.194Z" agent="5.0 (Macintosh; Intel Mac OS X 10_15_7) AppleWebKit/605.1.15 (KHTML, like Gecko) Version/15.1 Safari/605.1.15" version="20.6.2" etag="z7M_2VpEBQRY4yqca39z" type="github">
  <diagram id="opQr1FvIHCURqg0lBInn" name="Page-1">
    <mxGraphModel dx="996" dy="697" grid="1" gridSize="10" guides="1" tooltips="1" connect="1" arrows="1" fold="1" page="1" pageScale="1" pageWidth="827" pageHeight="1169" math="0" shadow="0">
      <root>
        <mxCell id="0" />
        <mxCell id="1" parent="0" />
        <mxCell id="WLni4xA_LB5y17CJBMW1-1" value="Start" style="rounded=1;whiteSpace=wrap;html=1;" vertex="1" parent="1">
          <mxGeometry x="350" y="40" width="100" height="40" as="geometry" />
        </mxCell>
        <mxCell id="WLni4xA_LB5y17CJBMW1-19" value="" style="edgeStyle=orthogonalEdgeStyle;rounded=0;orthogonalLoop=1;jettySize=auto;html=1;fontColor=#000000;exitX=0.5;exitY=1;exitDx=0;exitDy=0;entryX=0.5;entryY=0;entryDx=0;entryDy=0;" edge="1" parent="1" source="WLni4xA_LB5y17CJBMW1-20" target="WLni4xA_LB5y17CJBMW1-12">
          <mxGeometry relative="1" as="geometry">
            <mxPoint x="401" y="450" as="sourcePoint" />
            <mxPoint x="400.03999999999996" y="490" as="targetPoint" />
          </mxGeometry>
        </mxCell>
        <mxCell id="WLni4xA_LB5y17CJBMW1-24" value="Yes" style="edgeLabel;html=1;align=center;verticalAlign=middle;resizable=0;points=[];fontColor=#000000;" vertex="1" connectable="0" parent="WLni4xA_LB5y17CJBMW1-19">
          <mxGeometry x="-0.1378" y="1" relative="1" as="geometry">
            <mxPoint as="offset" />
          </mxGeometry>
        </mxCell>
        <mxCell id="WLni4xA_LB5y17CJBMW1-11" value="" style="edgeStyle=orthogonalEdgeStyle;rounded=0;orthogonalLoop=1;jettySize=auto;html=1;fontColor=#000000;entryX=0.5;entryY=0;entryDx=0;entryDy=0;exitX=0.5;exitY=1;exitDx=0;exitDy=0;" edge="1" parent="1" source="WLni4xA_LB5y17CJBMW1-21" target="WLni4xA_LB5y17CJBMW1-20">
          <mxGeometry relative="1" as="geometry">
            <mxPoint x="401" y="340" as="sourcePoint" />
            <mxPoint x="401" y="390" as="targetPoint" />
          </mxGeometry>
        </mxCell>
        <mxCell id="WLni4xA_LB5y17CJBMW1-15" value="" style="edgeStyle=orthogonalEdgeStyle;rounded=0;orthogonalLoop=1;jettySize=auto;html=1;fontColor=#000000;" edge="1" parent="1" source="WLni4xA_LB5y17CJBMW1-12" target="WLni4xA_LB5y17CJBMW1-14">
          <mxGeometry relative="1" as="geometry" />
        </mxCell>
        <mxCell id="WLni4xA_LB5y17CJBMW1-25" value="Yes&lt;br&gt;" style="edgeLabel;html=1;align=center;verticalAlign=middle;resizable=0;points=[];fontColor=#000000;" vertex="1" connectable="0" parent="WLni4xA_LB5y17CJBMW1-15">
          <mxGeometry x="-0.273" y="1" relative="1" as="geometry">
            <mxPoint as="offset" />
          </mxGeometry>
        </mxCell>
        <mxCell id="WLni4xA_LB5y17CJBMW1-29" value="" style="edgeStyle=orthogonalEdgeStyle;rounded=0;orthogonalLoop=1;jettySize=auto;html=1;fontColor=#000000;" edge="1" parent="1" source="WLni4xA_LB5y17CJBMW1-12" target="WLni4xA_LB5y17CJBMW1-28">
          <mxGeometry relative="1" as="geometry" />
        </mxCell>
        <mxCell id="WLni4xA_LB5y17CJBMW1-31" value="No" style="edgeLabel;html=1;align=center;verticalAlign=middle;resizable=0;points=[];fontColor=#000000;" vertex="1" connectable="0" parent="WLni4xA_LB5y17CJBMW1-29">
          <mxGeometry x="-0.3935" y="-3" relative="1" as="geometry">
            <mxPoint as="offset" />
          </mxGeometry>
        </mxCell>
        <mxCell id="WLni4xA_LB5y17CJBMW1-12" value="input[i].Length &amp;lt;= maxSymbols" style="rhombus;whiteSpace=wrap;html=1;rounded=0;" vertex="1" parent="1">
          <mxGeometry x="294.25" y="500" width="211.5" height="80" as="geometry" />
        </mxCell>
        <mxCell id="WLni4xA_LB5y17CJBMW1-32" style="edgeStyle=orthogonalEdgeStyle;rounded=0;orthogonalLoop=1;jettySize=auto;html=1;entryX=0;entryY=0.5;entryDx=0;entryDy=0;fontColor=#000000;" edge="1" parent="1" source="WLni4xA_LB5y17CJBMW1-14" target="WLni4xA_LB5y17CJBMW1-20">
          <mxGeometry relative="1" as="geometry">
            <Array as="points">
              <mxPoint x="276" y="670" />
              <mxPoint x="276" y="409" />
              <mxPoint x="270" y="409" />
              <mxPoint x="270" y="340" />
            </Array>
          </mxGeometry>
        </mxCell>
        <mxCell id="WLni4xA_LB5y17CJBMW1-14" value="i++&lt;br&gt;count++" style="rounded=0;whiteSpace=wrap;html=1;" vertex="1" parent="1">
          <mxGeometry x="340" y="640" width="120" height="60" as="geometry" />
        </mxCell>
        <mxCell id="WLni4xA_LB5y17CJBMW1-34" value="" style="edgeStyle=orthogonalEdgeStyle;rounded=0;orthogonalLoop=1;jettySize=auto;html=1;fontColor=#000000;" edge="1" parent="1" source="WLni4xA_LB5y17CJBMW1-20" target="WLni4xA_LB5y17CJBMW1-33">
          <mxGeometry relative="1" as="geometry">
            <Array as="points">
              <mxPoint x="660" y="340" />
              <mxPoint x="660" y="860" />
            </Array>
          </mxGeometry>
        </mxCell>
        <mxCell id="WLni4xA_LB5y17CJBMW1-35" value="No" style="edgeLabel;html=1;align=center;verticalAlign=middle;resizable=0;points=[];fontColor=#000000;" vertex="1" connectable="0" parent="WLni4xA_LB5y17CJBMW1-34">
          <mxGeometry x="-0.8227" y="-2" relative="1" as="geometry">
            <mxPoint as="offset" />
          </mxGeometry>
        </mxCell>
        <mxCell id="WLni4xA_LB5y17CJBMW1-20" value="&lt;span style=&quot;background-color: rgb(248, 249, 250);&quot;&gt;i&amp;lt; input.Length&lt;/span&gt;" style="rhombus;whiteSpace=wrap;html=1;labelBackgroundColor=#FFFFFF;fontColor=#000000;" vertex="1" parent="1">
          <mxGeometry x="295.75" y="300" width="210" height="80" as="geometry" />
        </mxCell>
        <mxCell id="WLni4xA_LB5y17CJBMW1-21" value="&lt;span style=&quot;caret-color: rgb(0, 0, 0); color: rgb(0, 0, 0); font-family: Helvetica; font-size: 12px; font-style: normal; font-variant-caps: normal; font-weight: normal; letter-spacing: normal; text-align: center; text-indent: 0px; text-transform: none; word-spacing: 0px; -webkit-text-stroke-width: 0px; background-color: rgb(255, 255, 255); text-decoration: none; float: none; display: inline !important;&quot;&gt;maxSymbols = 3&lt;/span&gt;&lt;br style=&quot;caret-color: rgb(0, 0, 0); color: rgb(0, 0, 0); font-family: Helvetica; font-size: 12px; font-style: normal; font-variant-caps: normal; font-weight: normal; letter-spacing: normal; text-align: center; text-indent: 0px; text-transform: none; word-spacing: 0px; -webkit-text-stroke-width: 0px; text-decoration: none;&quot;&gt;&lt;span style=&quot;caret-color: rgb(0, 0, 0); color: rgb(0, 0, 0); font-family: Helvetica; font-size: 12px; font-style: normal; font-variant-caps: normal; font-weight: normal; letter-spacing: normal; text-align: center; text-indent: 0px; text-transform: none; word-spacing: 0px; -webkit-text-stroke-width: 0px; background-color: rgb(255, 255, 255); text-decoration: none; float: none; display: inline !important;&quot;&gt;count = 0&lt;br&gt;i = 0&lt;br&gt;&lt;/span&gt;" style="rounded=0;whiteSpace=wrap;html=1;labelBackgroundColor=#FFFFFF;fontColor=#000000;" vertex="1" parent="1">
          <mxGeometry x="340" y="200" width="120" height="60" as="geometry" />
        </mxCell>
        <mxCell id="WLni4xA_LB5y17CJBMW1-30" style="edgeStyle=orthogonalEdgeStyle;rounded=0;orthogonalLoop=1;jettySize=auto;html=1;entryX=0;entryY=0.5;entryDx=0;entryDy=0;fontColor=#000000;" edge="1" parent="1" source="WLni4xA_LB5y17CJBMW1-28" target="WLni4xA_LB5y17CJBMW1-20">
          <mxGeometry relative="1" as="geometry">
            <Array as="points">
              <mxPoint x="600" y="780" />
              <mxPoint x="200" y="780" />
              <mxPoint x="200" y="340" />
            </Array>
          </mxGeometry>
        </mxCell>
        <mxCell id="WLni4xA_LB5y17CJBMW1-28" value="i++" style="rounded=0;whiteSpace=wrap;html=1;" vertex="1" parent="1">
          <mxGeometry x="560" y="520" width="80" height="40" as="geometry" />
        </mxCell>
        <mxCell id="WLni4xA_LB5y17CJBMW1-37" value="" style="edgeStyle=orthogonalEdgeStyle;rounded=0;orthogonalLoop=1;jettySize=auto;html=1;fontColor=#000000;" edge="1" parent="1" source="WLni4xA_LB5y17CJBMW1-33" target="WLni4xA_LB5y17CJBMW1-36">
          <mxGeometry relative="1" as="geometry" />
        </mxCell>
        <mxCell id="WLni4xA_LB5y17CJBMW1-33" value="I=0&lt;br&gt;j=0&lt;br&gt;output=newArray[count]" style="whiteSpace=wrap;html=1;fontColor=#000000;labelBackgroundColor=#FFFFFF;" vertex="1" parent="1">
          <mxGeometry x="320" y="830" width="180" height="60" as="geometry" />
        </mxCell>
        <mxCell id="WLni4xA_LB5y17CJBMW1-39" value="" style="edgeStyle=orthogonalEdgeStyle;rounded=0;orthogonalLoop=1;jettySize=auto;html=1;fontColor=#000000;" edge="1" parent="1" source="WLni4xA_LB5y17CJBMW1-36" target="WLni4xA_LB5y17CJBMW1-38">
          <mxGeometry relative="1" as="geometry" />
        </mxCell>
        <mxCell id="WLni4xA_LB5y17CJBMW1-40" value="yes" style="edgeLabel;html=1;align=center;verticalAlign=middle;resizable=0;points=[];fontColor=#000000;" vertex="1" connectable="0" parent="WLni4xA_LB5y17CJBMW1-39">
          <mxGeometry x="0.1018" y="1" relative="1" as="geometry">
            <mxPoint as="offset" />
          </mxGeometry>
        </mxCell>
        <mxCell id="WLni4xA_LB5y17CJBMW1-58" value="" style="edgeStyle=orthogonalEdgeStyle;rounded=0;orthogonalLoop=1;jettySize=auto;html=1;fontColor=#000000;" edge="1" parent="1" source="WLni4xA_LB5y17CJBMW1-36" target="WLni4xA_LB5y17CJBMW1-57">
          <mxGeometry relative="1" as="geometry" />
        </mxCell>
        <mxCell id="WLni4xA_LB5y17CJBMW1-36" value="&lt;span style=&quot;background-color: rgb(248, 249, 250);&quot;&gt;i&amp;lt; input.Length&lt;/span&gt;" style="rhombus;whiteSpace=wrap;html=1;labelBackgroundColor=#FFFFFF;fontColor=#000000;" vertex="1" parent="1">
          <mxGeometry x="305" y="930" width="210" height="80" as="geometry" />
        </mxCell>
        <mxCell id="WLni4xA_LB5y17CJBMW1-42" value="" style="edgeStyle=orthogonalEdgeStyle;rounded=0;orthogonalLoop=1;jettySize=auto;html=1;fontColor=#000000;" edge="1" parent="1" source="WLni4xA_LB5y17CJBMW1-38" target="WLni4xA_LB5y17CJBMW1-41">
          <mxGeometry relative="1" as="geometry" />
        </mxCell>
        <mxCell id="WLni4xA_LB5y17CJBMW1-45" value="yes" style="edgeLabel;html=1;align=center;verticalAlign=middle;resizable=0;points=[];fontColor=#000000;" vertex="1" connectable="0" parent="WLni4xA_LB5y17CJBMW1-42">
          <mxGeometry x="-0.2851" y="1" relative="1" as="geometry">
            <mxPoint as="offset" />
          </mxGeometry>
        </mxCell>
        <mxCell id="WLni4xA_LB5y17CJBMW1-48" style="edgeStyle=orthogonalEdgeStyle;rounded=0;orthogonalLoop=1;jettySize=auto;html=1;fontColor=#000000;entryX=0.5;entryY=0;entryDx=0;entryDy=0;" edge="1" parent="1" source="WLni4xA_LB5y17CJBMW1-38" target="WLni4xA_LB5y17CJBMW1-49">
          <mxGeometry relative="1" as="geometry">
            <mxPoint x="569.7826086956522" y="1170.0123342584027" as="targetPoint" />
            <Array as="points">
              <mxPoint x="575" y="1120" />
            </Array>
          </mxGeometry>
        </mxCell>
        <mxCell id="WLni4xA_LB5y17CJBMW1-50" value="NO" style="edgeLabel;html=1;align=center;verticalAlign=middle;resizable=0;points=[];fontColor=#000000;" vertex="1" connectable="0" parent="WLni4xA_LB5y17CJBMW1-48">
          <mxGeometry x="-0.6369" y="3" relative="1" as="geometry">
            <mxPoint as="offset" />
          </mxGeometry>
        </mxCell>
        <mxCell id="WLni4xA_LB5y17CJBMW1-38" value="input[i].Length &amp;lt;= maxSymbols" style="rhombus;whiteSpace=wrap;html=1;rounded=0;" vertex="1" parent="1">
          <mxGeometry x="303.5" y="1080" width="211.5" height="80" as="geometry" />
        </mxCell>
        <mxCell id="WLni4xA_LB5y17CJBMW1-46" style="edgeStyle=orthogonalEdgeStyle;rounded=0;orthogonalLoop=1;jettySize=auto;html=1;entryX=0;entryY=0.5;entryDx=0;entryDy=0;fontColor=#000000;exitX=0;exitY=0.5;exitDx=0;exitDy=0;" edge="1" parent="1" source="WLni4xA_LB5y17CJBMW1-41" target="WLni4xA_LB5y17CJBMW1-36">
          <mxGeometry relative="1" as="geometry">
            <Array as="points">
              <mxPoint x="285" y="1240" />
              <mxPoint x="285" y="970" />
            </Array>
          </mxGeometry>
        </mxCell>
        <mxCell id="WLni4xA_LB5y17CJBMW1-41" value="output[j]=input[I]&lt;br&gt;j++&lt;br&gt;I++" style="rounded=0;whiteSpace=wrap;html=1;" vertex="1" parent="1">
          <mxGeometry x="349.25" y="1210" width="120" height="60" as="geometry" />
        </mxCell>
        <mxCell id="WLni4xA_LB5y17CJBMW1-44" value="" style="edgeStyle=orthogonalEdgeStyle;rounded=0;orthogonalLoop=1;jettySize=auto;html=1;fontColor=#000000;" edge="1" parent="1" source="WLni4xA_LB5y17CJBMW1-43" target="WLni4xA_LB5y17CJBMW1-21">
          <mxGeometry relative="1" as="geometry" />
        </mxCell>
        <mxCell id="WLni4xA_LB5y17CJBMW1-43" value="input" style="shape=parallelogram;perimeter=parallelogramPerimeter;whiteSpace=wrap;html=1;fixedSize=1;labelBackgroundColor=#FFFFFF;fontColor=#000000;" vertex="1" parent="1">
          <mxGeometry x="340" y="110" width="120" height="60" as="geometry" />
        </mxCell>
        <mxCell id="WLni4xA_LB5y17CJBMW1-56" style="edgeStyle=orthogonalEdgeStyle;rounded=0;orthogonalLoop=1;jettySize=auto;html=1;entryX=0;entryY=0.5;entryDx=0;entryDy=0;fontColor=#000000;" edge="1" parent="1" source="WLni4xA_LB5y17CJBMW1-49" target="WLni4xA_LB5y17CJBMW1-36">
          <mxGeometry relative="1" as="geometry">
            <Array as="points">
              <mxPoint x="575" y="1340" />
              <mxPoint x="285" y="1340" />
              <mxPoint x="285" y="970" />
            </Array>
          </mxGeometry>
        </mxCell>
        <mxCell id="WLni4xA_LB5y17CJBMW1-49" value="i++" style="rounded=0;whiteSpace=wrap;html=1;labelBackgroundColor=#FFFFFF;fontColor=#000000;" vertex="1" parent="1">
          <mxGeometry x="515" y="1210" width="120" height="60" as="geometry" />
        </mxCell>
        <mxCell id="WLni4xA_LB5y17CJBMW1-57" value="output" style="shape=document;whiteSpace=wrap;html=1;boundedLbl=1;fontColor=#000000;labelBackgroundColor=#FFFFFF;" vertex="1" parent="1">
          <mxGeometry x="640" y="930" width="120" height="80" as="geometry" />
        </mxCell>
      </root>
    </mxGraphModel>
  </diagram>
</mxfile>
